<svg xmlns="http://www.w3.org/2000/svg" xmlns:xlink="http://www.w3.org/1999/xlink" width="542" zoomAndPan="magnify" viewBox="0 0 406.5 406.499996" height="542" preserveAspectRatio="xMidYMid meet" version="1.0"><defs><clipPath id="9186b384d3"><path d="M 0 0 L 405.867188 0 L 405.867188 406 L 0 406 Z M 0 0 " clip-rule="nonzero"/></clipPath></defs><path fill="#ffffff" d="M 0 0 L 406 0 L 406 406 L 0 406 Z M 0 0 " fill-opacity="1" fill-rule="nonzero"/><g clip-path="url(#9186b384d3)"><path fill="#948f86" d="M 29.964844 408.996094 L 119.148438 408.996094 C 135.722656 408.996094 149.207031 395.511719 149.207031 378.9375 L 149.207031 232.039062 C 149.207031 210.238281 135.25 192.199219 114.207031 186.386719 L 114.207031 171.777344 L 139.84375 171.777344 C 141.648438 171.777344 143.113281 170.3125 143.113281 168.507812 L 143.113281 133.972656 C 143.113281 122.691406 134.238281 113.445312 123.105469 112.839844 L 105.628906 99.304688 C 101.386719 96.019531 98.917969 91.058594 98.859375 85.695312 L 98.550781 58.234375 C 98.40625 45.148438 87.640625 34.503906 74.554688 34.503906 C 61.472656 34.503906 50.707031 45.148438 50.558594 58.234375 L 50.25 85.695312 C 50.191406 91.058594 47.726562 96.019531 43.484375 99.304688 L 26.007812 112.839844 C 14.871094 113.445312 6 122.691406 6 133.972656 L 6 168.507812 C 6 170.3125 7.464844 171.777344 9.269531 171.777344 L 34.90625 171.777344 L 34.90625 186.386719 C 13.859375 192.199219 -0.09375 210.238281 -0.09375 232.039062 L -0.09375 378.9375 C -0.09375 395.511719 13.390625 408.996094 29.964844 408.996094 Z M 139.042969 214.730469 C 133.195312 217.652344 116.902344 224.6875 91.878906 227.09375 L 91.878906 171.777344 L 107.664062 171.777344 L 107.664062 188.941406 C 107.664062 190.472656 108.726562 191.800781 110.222656 192.132812 C 123.714844 195.144531 133.933594 203.433594 139.042969 214.730469 Z M 47.488281 104.476562 C 53.316406 99.960938 56.707031 93.144531 56.789062 85.773438 L 57.097656 58.308594 C 57.203125 48.789062 65.035156 41.046875 74.554688 41.046875 C 84.074219 41.046875 91.90625 48.789062 92.011719 58.308594 L 92.320312 85.773438 C 92.402344 93.144531 95.792969 99.960938 101.621094 104.476562 L 112.378906 112.808594 L 36.726562 112.808594 Z M 12.539062 133.972656 C 12.539062 125.910156 19.101562 119.347656 27.167969 119.347656 L 121.945312 119.347656 C 130.011719 119.347656 136.574219 125.910156 136.574219 133.972656 L 136.574219 144.640625 L 12.539062 144.640625 Z M 12.539062 165.238281 L 12.539062 151.179688 L 136.570312 151.179688 L 136.570312 165.238281 Z M 69.21875 351.246094 C 65.855469 349.324219 63.769531 345.738281 63.769531 341.886719 L 63.769531 234.152344 C 67.230469 234.34375 70.816406 234.457031 74.554688 234.457031 C 78.292969 234.457031 81.882812 234.34375 85.339844 234.152344 L 85.339844 341.886719 C 85.339844 345.738281 83.253906 349.324219 79.894531 351.246094 C 78.875 351.828125 78.246094 352.910156 78.246094 354.085938 L 78.246094 374.558594 C 78.246094 376.59375 76.589844 378.25 74.554688 378.25 C 72.519531 378.25 70.863281 376.59375 70.863281 374.558594 L 70.863281 354.085938 C 70.863281 352.910156 70.234375 351.828125 69.21875 351.246094 Z M 74.554688 227.917969 C 70.816406 227.917969 67.222656 227.800781 63.769531 227.597656 L 63.769531 171.777344 L 85.339844 171.777344 L 85.339844 227.597656 C 81.886719 227.800781 78.296875 227.917969 74.554688 227.917969 Z M 38.886719 192.132812 C 40.382812 191.800781 41.445312 190.472656 41.445312 188.941406 L 41.445312 171.777344 L 57.230469 171.777344 L 57.230469 227.085938 C 32.277344 224.675781 15.9375 217.640625 10.070312 214.726562 C 15.179688 203.433594 25.398438 195.144531 38.886719 192.132812 Z M 6.445312 232.039062 C 6.445312 228.164062 6.9375 224.453125 7.863281 220.953125 C 14.839844 224.375 31.722656 231.335938 57.230469 233.671875 L 57.230469 341.886719 C 57.230469 347.421875 59.90625 352.609375 64.324219 355.851562 L 64.324219 374.558594 C 64.324219 380.199219 68.914062 384.789062 74.554688 384.789062 C 80.195312 384.789062 84.785156 380.199219 84.785156 374.558594 L 84.785156 355.851562 C 89.203125 352.609375 91.878906 347.417969 91.878906 341.886719 L 91.878906 233.671875 C 117.390625 231.339844 134.269531 224.375 141.246094 220.953125 C 142.175781 224.453125 142.664062 228.164062 142.664062 232.039062 L 142.664062 378.9375 C 142.664062 391.90625 132.117188 402.457031 119.148438 402.457031 L 29.964844 402.457031 C 16.996094 402.457031 6.445312 391.90625 6.445312 378.9375 Z M 115.550781 271.328125 C 121.816406 271.328125 126.730469 265.03125 126.730469 256.992188 C 126.730469 248.953125 121.816406 242.652344 115.550781 242.652344 C 109.28125 242.652344 104.371094 248.953125 104.371094 256.992188 C 104.371094 265.03125 109.28125 271.328125 115.550781 271.328125 Z M 115.550781 249.191406 C 117.742188 249.191406 120.1875 252.394531 120.1875 256.992188 C 120.1875 261.585938 117.742188 264.789062 115.550781 264.789062 C 113.355469 264.789062 110.910156 261.585938 110.910156 256.992188 C 110.910156 252.394531 113.355469 249.191406 115.550781 249.191406 Z M 115.550781 304.597656 C 121.714844 304.597656 126.730469 299.585938 126.730469 293.421875 C 126.730469 287.257812 121.714844 282.242188 115.550781 282.242188 C 109.386719 282.242188 104.371094 287.257812 104.371094 293.421875 C 104.371094 299.585938 109.386719 304.597656 115.550781 304.597656 Z M 115.550781 288.78125 C 118.109375 288.78125 120.1875 290.863281 120.1875 293.421875 C 120.1875 295.980469 118.109375 298.058594 115.550781 298.058594 C 112.992188 298.058594 110.910156 295.980469 110.910156 293.421875 C 110.910156 290.863281 112.992188 288.78125 115.550781 288.78125 Z M 265.074219 344.222656 C 272.914062 344.222656 279.054688 335.015625 279.054688 323.261719 C 279.054688 311.503906 272.914062 302.300781 265.074219 302.300781 C 257.230469 302.300781 251.089844 311.507812 251.089844 323.261719 C 251.089844 335.011719 257.230469 344.222656 265.074219 344.222656 Z M 265.074219 308.839844 C 268.59375 308.839844 272.515625 314.761719 272.515625 323.261719 C 272.515625 331.757812 268.59375 337.679688 265.074219 337.679688 C 261.550781 337.679688 257.628906 331.757812 257.628906 323.261719 C 257.628906 314.761719 261.550781 308.839844 265.074219 308.839844 Z M 201.941406 131.042969 C 215.832031 134.460938 229.0625 136.28125 238.917969 136.28125 C 241.9375 136.28125 244.632812 136.105469 246.9375 135.757812 C 249.28125 144.945312 250.90625 154.359375 251.785156 163.839844 C 244.746094 159.46875 236.21875 155.070312 227.132812 151.15625 C 214.699219 145.800781 202.492188 141.875 192.761719 140.101562 C 181.136719 137.980469 174.53125 139.15625 172.574219 143.699219 C 168.210938 153.832031 194.449219 168.789062 212.609375 176.953125 L 186.109375 176.953125 C 181.992188 176.953125 178.148438 178.792969 175.5625 181.996094 C 172.976562 185.199219 171.992188 189.34375 172.859375 193.371094 L 175.765625 206.828125 L 175.234375 206.828125 C 164.96875 206.828125 156.617188 215.179688 156.617188 225.445312 C 156.617188 234.203125 162.699219 241.566406 170.859375 243.539062 L 163.574219 265.15625 C 161.761719 270.53125 160.84375 276.136719 160.84375 281.8125 L 160.84375 383.316406 C 160.84375 397.476562 172.363281 408.996094 186.523438 408.996094 L 271.089844 408.996094 C 285.25 408.996094 296.769531 397.476562 296.769531 383.316406 L 296.769531 356.367188 C 303.214844 351.105469 331.671875 326.621094 349.558594 291.144531 C 352.148438 291.835938 355.214844 292.128906 358.449219 292.128906 C 367.746094 292.128906 378.359375 289.773438 382.574219 287.859375 C 386.894531 285.902344 390.136719 282.277344 391.699219 277.65625 C 393.234375 273.113281 392.960938 268.144531 390.925781 263.65625 C 386.691406 254.320312 376.058594 249.980469 367.21875 253.988281 C 365.714844 254.671875 363.835938 255.796875 361.800781 257.207031 C 364.996094 243.199219 366.675781 228.238281 367.40625 213.738281 C 377.847656 213.425781 393.09375 207.082031 398.574219 203 C 402.527344 200.054688 405.011719 195.660156 405.574219 190.625 C 406.128906 185.667969 404.746094 180.679688 401.6875 176.570312 C 398.625 172.464844 394.238281 169.714844 389.332031 168.832031 C 384.34375 167.929688 379.421875 169.054688 375.472656 172 C 373.277344 173.632812 370.425781 176.566406 367.605469 179.984375 C 366.875 158.5625 364.785156 141.6875 364.015625 136.023438 C 369.796875 131.6875 387.726562 117.816406 391.308594 109.972656 C 393.480469 105.222656 393.890625 99.992188 392.464844 95.246094 C 390.996094 90.339844 387.765625 86.53125 383.363281 84.523438 C 374.433594 80.445312 363.46875 85.222656 358.921875 95.175781 C 356.703125 100.042969 356.339844 110.597656 356.507812 119.632812 C 352.132812 111.722656 346.542969 102.765625 342.1875 99.660156 C 333.269531 93.316406 321.386719 94.660156 315.691406 102.65625 C 312.886719 106.597656 311.992188 111.511719 313.167969 116.492188 C 314.3125 121.316406 317.28125 125.640625 321.535156 128.667969 C 328.378906 133.539062 349.863281 136.554688 357.609375 137.507812 C 358.417969 143.734375 360.453125 161.140625 361.070312 182.753906 C 355.644531 175.035156 349.453125 168.003906 345.429688 164.765625 C 335.042969 156.398438 320.054688 157.710938 312.023438 167.6875 C 303.988281 177.664062 305.902344 192.585938 316.289062 200.953125 C 323.316406 206.609375 346.578125 218.292969 360.519531 218.539062 C 359.699219 231.257812 358.097656 244.144531 355.328125 256.175781 C 352.507812 251.242188 349.492188 246.886719 347.113281 244.457031 C 343.066406 240.316406 337.527344 238.15625 331.492188 238.367188 C 325.578125 238.578125 319.902344 241.058594 315.503906 245.355469 C 311.109375 249.65625 308.5 255.273438 308.15625 261.179688 C 307.808594 267.203125 309.84375 272.796875 313.890625 276.9375 C 318.214844 281.363281 330.007812 289.035156 341.089844 293.0625 C 326.523438 319.488281 306.253906 339.277344 296.773438 347.722656 L 296.773438 281.808594 C 296.773438 276.132812 295.855469 270.53125 294.042969 265.152344 L 286.757812 243.539062 C 294.921875 241.5625 301 234.203125 301 225.445312 C 301 215.179688 292.648438 206.828125 282.382812 206.828125 L 281.851562 206.828125 L 284.753906 193.367188 C 285.625 189.34375 284.640625 185.199219 282.054688 181.992188 C 280.074219 179.542969 277.355469 177.898438 274.34375 177.257812 C 280.074219 170.242188 286.101562 160.125 291.210938 148.78125 C 296.332031 137.40625 299.949219 126.132812 301.398438 117.035156 C 303.105469 106.316406 301.628906 99.832031 297.007812 97.75 C 287.195312 93.332031 272.3125 114.4375 262.640625 135.917969 C 260.347656 141.011719 258.367188 146.058594 256.742188 150.898438 C 255.707031 144.441406 254.34375 138.046875 252.65625 131.761719 C 259.378906 125.957031 267.667969 111.414062 274.382812 93.398438 C 278.726562 81.742188 281.734375 70.347656 282.859375 61.3125 C 284.21875 50.410156 282.710938 44.304688 278.257812 42.644531 C 273.796875 40.988281 268.667969 44.617188 262.5625 53.75 C 257.5 61.320312 252.320312 71.90625 247.980469 83.5625 C 245.578125 90.003906 243.5625 96.460938 242.054688 102.46875 C 240.027344 98.089844 237.832031 93.816406 235.46875 89.667969 C 242.90625 82.609375 245.335938 59.175781 245.539062 44.578125 C 245.78125 26.980469 243.195312 -2.839844 231.964844 -2.996094 C 231.925781 -2.996094 231.894531 -2.996094 231.863281 -2.996094 C 227.136719 -2.996094 223.519531 1.996094 220.820312 12.253906 C 218.574219 20.78125 217.246094 32.085938 217.074219 44.085938 C 214.601562 40.355469 211.828125 36.550781 208.820312 32.773438 C 201.574219 23.679688 193.820312 15.835938 186.984375 10.679688 C 178.828125 4.53125 172.828125 2.894531 169.15625 5.820312 C 165.484375 8.742188 165.734375 14.957031 169.90625 24.285156 C 173.398438 32.101562 179.3125 41.414062 186.554688 50.507812 C 187.242188 51.367188 187.933594 52.21875 188.632812 53.0625 C 183.492188 50.875 178.585938 49.183594 174.214844 48.113281 C 164.613281 45.761719 158.605469 46.648438 156.351562 50.75 C 154.101562 54.847656 156.578125 60.394531 163.710938 67.238281 C 169.679688 72.960938 178.367188 79.078125 188.179688 84.46875 C 198.441406 90.105469 214.511719 97.1875 224.828125 97.1875 C 227.421875 97.1875 229.652344 96.734375 231.335938 95.703125 C 234.285156 101.128906 236.945312 106.765625 239.308594 112.566406 C 230.996094 108.796875 220.402344 105.238281 208.980469 102.429688 C 189.84375 97.722656 156.714844 92.765625 153.9375 104.058594 C 151.160156 115.351562 182.804688 126.332031 201.941406 131.042969 Z M 367.839844 190.585938 C 371.957031 184.433594 376.78125 179.175781 379.375 177.242188 C 381.855469 175.394531 384.980469 174.6875 388.167969 175.265625 C 391.433594 175.855469 394.371094 177.707031 396.4375 180.480469 C 398.507812 183.253906 399.441406 186.597656 399.070312 189.898438 C 398.710938 193.117188 397.148438 195.90625 394.664062 197.757812 C 390.050781 201.195312 376.28125 206.808594 367.671875 207.199219 C 367.851562 201.523438 367.894531 195.957031 367.839844 190.585938 Z M 364.867188 97.894531 C 367.214844 92.753906 371.953125 89.597656 376.585938 89.597656 C 377.96875 89.597656 379.34375 89.878906 380.640625 90.472656 C 383.304688 91.6875 385.277344 94.050781 386.199219 97.121094 C 387.164062 100.351562 386.867188 103.949219 385.355469 107.257812 C 383.25 111.863281 372.199219 121.421875 363.363281 128.292969 C 362.773438 117.117188 362.761719 102.503906 364.867188 97.894531 Z M 325.324219 123.339844 C 322.363281 121.234375 320.304688 118.265625 319.527344 114.988281 C 318.789062 111.863281 319.316406 108.832031 321.015625 106.449219 C 323.019531 103.632812 326.320312 102.179688 329.886719 102.179688 C 332.730469 102.179688 335.738281 103.101562 338.386719 104.988281 C 342.515625 107.929688 349.8125 120.589844 354.890625 130.5625 C 343.800781 129.03125 329.449219 126.28125 325.324219 123.339844 Z M 320.386719 195.859375 C 312.808594 189.757812 311.335938 178.960938 317.109375 171.789062 C 322.882812 164.621094 333.746094 163.753906 341.324219 169.859375 C 346.355469 173.910156 355.625 185.191406 361.242188 195.238281 C 361.238281 200.703125 361.128906 206.332031 360.871094 212.03125 C 349.898438 212.089844 327.671875 201.730469 320.386719 195.859375 Z M 359.046875 267.667969 C 363.570312 263.699219 367.808594 260.902344 369.917969 259.945312 C 375.472656 257.429688 382.222656 260.304688 384.96875 266.359375 C 386.316406 269.328125 386.503906 272.597656 385.5 275.5625 C 384.523438 278.449219 382.527344 280.699219 379.875 281.902344 C 374.726562 284.238281 360.292969 286.652344 352.4375 285.132812 C 354.96875 279.546875 357.207031 273.714844 359.046875 267.667969 Z M 318.5625 272.367188 C 315.816406 269.558594 314.441406 265.722656 314.679688 261.5625 C 314.929688 257.285156 316.84375 253.191406 320.074219 250.035156 C 323.300781 246.878906 327.4375 245.054688 331.71875 244.90625 C 335.878906 244.757812 339.6875 246.222656 342.433594 249.03125 C 344.933594 251.589844 349.234375 257.988281 352.859375 265.519531 C 350.5625 273.097656 347.582031 280.355469 344.15625 287.210938 C 333.980469 283.683594 322.359375 276.253906 318.5625 272.367188 Z M 173.242188 10.953125 C 176.089844 10.140625 188.828125 18.171875 203.703125 36.851562 C 209.28125 43.855469 213.992188 50.921875 217.375 57.34375 C 217.664062 61.996094 218.140625 66.386719 218.789062 70.371094 C 214.839844 67.382812 210.339844 64.394531 205.488281 61.566406 C 200.921875 57.28125 196.148438 52.058594 191.667969 46.433594 C 176.792969 27.757812 171.816406 13.546875 173.242188 10.953125 Z M 227.96875 90.085938 C 225.933594 91.984375 211.335938 89.726562 191.328125 78.734375 C 171.320312 67.746094 161.582031 56.636719 162.09375 53.902344 C 164.125 52.003906 178.726562 54.261719 198.734375 65.253906 C 218.742188 76.242188 228.480469 87.351562 227.96875 90.085938 Z M 227 77.390625 C 224.699219 69.328125 223.433594 57.050781 223.609375 44.277344 C 223.949219 19.691406 229.097656 4.917969 231.867188 3.578125 C 234.597656 4.996094 239.332031 19.90625 238.992188 44.488281 C 238.707031 65.261719 234.988281 79.023438 232.210938 83.59375 C 230.972656 81.667969 229.230469 79.597656 227 77.390625 Z M 188.949219 156.46875 C 180.160156 150.261719 178.847656 147.070312 178.652344 146.316406 C 179.335938 145.941406 182.558594 144.703125 193.105469 146.824219 C 202.109375 148.636719 213.273438 152.308594 224.546875 157.164062 C 235.183594 161.742188 244.984375 166.976562 252.359375 172.003906 C 252.4375 173.652344 252.492188 175.304688 252.523438 176.953125 L 230.085938 176.953125 C 226.132812 175.539062 222.09375 173.945312 218.066406 172.210938 C 206.792969 167.355469 196.453125 161.765625 188.949219 156.46875 Z M 290.230469 281.8125 L 290.230469 383.316406 C 290.230469 393.871094 281.644531 402.457031 271.089844 402.457031 L 186.523438 402.457031 C 175.96875 402.457031 167.382812 393.871094 167.382812 383.316406 L 167.382812 281.8125 C 167.382812 278.277344 167.796875 274.777344 168.601562 271.351562 C 176.804688 276.246094 197.632812 286.445312 228.804688 286.445312 C 259.976562 286.445312 280.804688 276.246094 289.007812 271.351562 C 289.816406 274.773438 290.230469 278.277344 290.230469 281.8125 Z M 287.039062 264.863281 C 280.890625 268.710938 260.292969 279.90625 228.804688 279.90625 C 197.316406 279.90625 176.71875 268.710938 170.570312 264.867188 L 177.582031 244.0625 L 183.804688 244.0625 L 185.925781 253.894531 C 187.265625 260.089844 192.835938 264.585938 199.175781 264.585938 L 258.433594 264.585938 C 264.773438 264.585938 270.347656 260.089844 271.683594 253.894531 L 273.808594 244.0625 L 280.03125 244.0625 Z M 190.496094 244.0625 L 267.117188 244.0625 L 265.292969 252.511719 C 264.601562 255.722656 261.714844 258.046875 258.433594 258.046875 L 199.175781 258.046875 C 195.894531 258.046875 193.011719 255.71875 192.320312 252.511719 Z M 282.378906 213.367188 C 289.039062 213.367188 294.457031 218.785156 294.457031 225.445312 C 294.457031 232.105469 289.039062 237.523438 282.378906 237.523438 L 175.234375 237.523438 C 168.574219 237.523438 163.15625 232.105469 163.15625 225.445312 C 163.15625 218.785156 168.574219 213.367188 175.234375 213.367188 Z M 268.601562 138.601562 C 273.488281 127.742188 279.210938 118.082031 284.707031 111.402344 C 290.632812 104.191406 293.84375 103.5 294.316406 103.714844 C 294.792969 103.929688 296.402344 106.789062 294.933594 116.007812 C 293.574219 124.550781 290.132812 135.238281 285.242188 146.097656 C 279.347656 159.191406 272.003906 170.835938 265.832031 176.953125 L 259.066406 176.953125 C 259.019531 174.496094 258.921875 172.039062 258.777344 169.582031 C 260.007812 161.023438 263.578125 149.753906 268.601562 138.601562 Z M 271.5 183.492188 C 273.632812 183.492188 275.621094 184.445312 276.960938 186.101562 C 278.296875 187.761719 278.808594 189.90625 278.359375 191.988281 L 275.15625 206.828125 L 182.457031 206.828125 L 179.253906 191.988281 C 178.804688 189.90625 179.3125 187.761719 180.652344 186.101562 C 181.992188 184.445312 183.980469 183.492188 186.113281 183.492188 Z M 254.101562 85.84375 C 262.988281 61.988281 272.703125 49.503906 275.945312 48.839844 C 277.957031 51.460938 277.136719 67.261719 268.246094 91.117188 C 262.285156 107.121094 255.507812 118.949219 250.566406 124.609375 C 249.339844 120.675781 247.984375 116.796875 246.507812 112.980469 C 247.84375 105.046875 250.519531 95.460938 254.101562 85.84375 Z M 174.703125 103.761719 C 183.878906 104.066406 195.5 105.847656 207.417969 108.78125 C 221.597656 112.269531 234.351562 116.902344 242.695312 121.570312 C 243.589844 124.15625 244.417969 126.769531 245.191406 129.402344 C 237.308594 130.402344 222.484375 129.359375 203.503906 124.691406 C 191.585938 121.757812 180.464844 117.949219 172.191406 113.960938 C 162.5 109.285156 160.679688 106.355469 160.363281 105.640625 C 160.972656 105.15625 163.945312 103.40625 174.703125 103.761719 Z M 174.703125 103.761719 " fill-opacity="1" fill-rule="nonzero"/></g></svg>