<svg xmlns="http://www.w3.org/2000/svg" viewBox="0 0 128 128"><defs><style>.cls-1{fill:#47566a;}</style></defs><title>Medical Checkup</title><g id="Medical_Checkup" data-name="Medical Checkup"><path class="cls-1" d="M102.61,4.06h-18A7.11,7.11,0,0,0,78.23,0H49.77a7.11,7.11,0,0,0-6.4,4.06h-18a9.14,9.14,0,0,0-9.13,9.13V118.87A9.13,9.13,0,0,0,25.39,128h77.22a9.13,9.13,0,0,0,9.13-9.13V13.19A9.14,9.14,0,0,0,102.61,4.06ZM49.77,2H78.23a5.1,5.1,0,0,1,0,10.19H49.77A5.1,5.1,0,0,1,49.77,2ZM79.26,14.19v5.1a3.07,3.07,0,0,1-3.07,3.06H71A2.89,2.89,0,0,1,68.46,21a5.06,5.06,0,0,0-8.92,0A2.89,2.89,0,0,1,57,22.35H51.81a3.07,3.07,0,0,1-3.07-3.06v-5.1ZM51.81,24.35H57a4.84,4.84,0,0,0,4.33-2.44,3.06,3.06,0,0,1,5.4,0A4.84,4.84,0,0,0,71,24.35h5.16a5.07,5.07,0,0,0,5.07-5.06v-5.1H99.58V115.84H28.42V14.19H46.74v5.1A5.07,5.07,0,0,0,51.81,24.35Zm57.93,94.52a7.14,7.14,0,0,1-7.13,7.13H25.39a7.14,7.14,0,0,1-7.13-7.13V13.19a7.14,7.14,0,0,1,7.13-7.13H42.76a7,7,0,0,0,2.09,6.13H27.42a1,1,0,0,0-1,1V116.84a1,1,0,0,0,1,1h73.16a1,1,0,0,0,1-1V13.19a1,1,0,0,0-1-1H83.15a7,7,0,0,0,2.09-6.13h17.37a7.14,7.14,0,0,1,7.13,7.13Z"/><path class="cls-1" d="M55.87,50.77H63V57.9a1,1,0,0,0,2,0V50.77h7.13a1,1,0,0,0,0-2H65V41.65a1,1,0,0,0-2,0v7.12H55.87A1,1,0,0,0,55.87,50.77Z"/><path class="cls-1" d="M64,67A17.26,17.26,0,1,0,46.74,49.77,17.28,17.28,0,0,0,64,67Zm0-32.51A15.26,15.26,0,1,1,48.74,49.77,15.27,15.27,0,0,1,64,34.52Z"/><path class="cls-1" d="M51.81,8.6a1.5,1.5,0,0,0,0-3A1.5,1.5,0,0,0,51.81,8.6Z"/><path class="cls-1" d="M76.19,8.6a1.5,1.5,0,0,0,0-3A1.5,1.5,0,0,0,76.19,8.6Z"/><path class="cls-1" d="M53.84,79.23H88.39a1,1,0,0,0,0-2H53.84A1,1,0,0,0,53.84,79.23Z"/><path class="cls-1" d="M88.39,89.42H53.84a1,1,0,0,0,0,2H88.39A1,1,0,0,0,88.39,89.42Z"/><path class="cls-1" d="M88.39,101.61H53.84a1,1,0,0,0,0,2H88.39A1,1,0,0,0,88.39,101.61Z"/><path class="cls-1" d="M45,75.49l-3.35,3.35-1.33-1.32a1,1,0,0,0-1.41,1.41c3.35,3.35,2.05,3.42,7.51-2A1,1,0,0,0,45,75.49Z"/><path class="cls-1" d="M45,87.68,41.65,91l-1.33-1.33a1,1,0,0,0-1.41,1.42c3.35,3.35,2.05,3.42,7.51-2A1,1,0,0,0,45,87.68Z"/><path class="cls-1" d="M45,99.87l-3.35,3.36-1.33-1.32a1,1,0,0,0-1.41,1.41c3.35,3.35,2.05,3.42,7.51-2A1,1,0,0,0,45,99.87Z"/></g></svg>