<svg xmlns="http://www.w3.org/2000/svg" viewBox="0 0 128 128"><defs><style>.cls-1{fill:#47566a;}</style></defs><title>Weight Scale</title><g id="Weight_Scale" data-name="Weight Scale"><path class="cls-1" d="M107.67,8.13H82.6a25.34,25.34,0,0,0-37.2,0H20.33A20.35,20.35,0,0,0,0,28.46c0,1.63-.4-2.77,8.36,81.33A20.29,20.29,0,0,0,28.58,128H99.42a20.29,20.29,0,0,0,20.22-18.21l8.25-79.25A20.33,20.33,0,0,0,107.67,8.13Zm-21.61,9.5C91.64,31.13,81,48.77,64,48.77c-16.79,0-27.68-17.37-22.06-31.14C49.27-3.16,78.73-3.16,86.06,17.63Zm2.3.63h19.31a10.2,10.2,0,0,1,10.2,10.2c0,.8.53-4.52-8.31,80.27a10.15,10.15,0,0,1-10.14,9.14H28.58a10.15,10.15,0,0,1-10.14-9.14L10.18,29.51A10.21,10.21,0,0,1,20.33,18.26H39.64a25.38,25.38,0,1,0,48.72,0ZM125.9,30.34l-8.25,79.24A18.29,18.29,0,0,1,99.42,126H28.58a18.29,18.29,0,0,1-18.23-16.42C1.5,24.59,2,29.87,2,28.46A18.35,18.35,0,0,1,20.33,10.13H43.72a25.29,25.29,0,0,0-3.4,6.13h-20A12.2,12.2,0,0,0,8.2,29.72l8.25,79.21a12.15,12.15,0,0,0,12.13,10.94H99.42a12.15,12.15,0,0,0,12.13-10.93c8.83-84.76,8.32-79.54,8.32-80.48a12.21,12.21,0,0,0-12.2-12.2h-20a25.29,25.29,0,0,0-3.4-6.13h23.39A18.32,18.32,0,0,1,125.9,30.34Z"/><path class="cls-1" d="M64,42.65A17.26,17.26,0,1,0,46.74,25.39,17.28,17.28,0,0,0,64,42.65Zm0-32.52A15.26,15.26,0,1,1,48.74,25.39,15.28,15.28,0,0,1,64,10.13Z"/><path class="cls-1" d="M64,35.52a2,2,0,0,0,.94-3.76c.08-.27.06.76.06-10.44a1,1,0,0,0-2,0c0,11.07,0,10.17.06,10.44A2,2,0,0,0,64,35.52Z"/></g></svg>