<svg xmlns="http://www.w3.org/2000/svg" viewBox="0 0 128 128"><defs><style>.cls-1{fill:#47566a;}</style></defs><title>Herbal</title><g id="Herbal"><path class="cls-1" d="M127,52.84H102.51l5-25.28a15.24,15.24,0,0,0,4.26-19.94c-6.75-11.7-24.4-9.37-27.9,3.67a15.23,15.23,0,0,0,.83,10.15L74,52.84H59.46a23.06,23.06,0,0,0,13.67-21V29.45a1,1,0,0,0-1-1H65.72a23.07,23.07,0,0,0-22,16.15A27.38,27.38,0,0,0,17.34,24.39H7.1a1,1,0,0,0-1,1V27.5A27.39,27.39,0,0,0,23.19,52.84H1a1.06,1.06,0,0,0-1,1V76.19a43.73,43.73,0,0,0,42.68,43.66V127a1,1,0,0,0,1,1H84.32a1,1,0,0,0,1-1v-7.15A43.73,43.73,0,0,0,128,76.19V53.87A1.06,1.06,0,0,0,127,52.84ZM86.69,21a13.14,13.14,0,0,1-.87-9.14C88.85.47,104.18-1.54,110,8.61a13.24,13.24,0,0,1-4,17.54c-.5.34.06-1.75-5.58,26.69H76.13C87.62,19.09,87,21.5,86.69,21Zm-21,9.5h5.41V31.8a21.07,21.07,0,0,1-21,21H46.31L62.63,38.33a1,1,0,0,0-1.33-1.5L44.68,51.61A21.05,21.05,0,0,1,65.72,30.45ZM8.1,26.39h9.24A25.36,25.36,0,0,1,42.68,51.84L19.89,34.75a1,1,0,0,0-1.2,1.6l22,16.49H33.44C20.44,52.84,8.1,42.83,8.1,26.39ZM83.32,126H44.68v-6.13H83.32ZM126,76.19a41.73,41.73,0,0,1-41.68,41.68H43.68A41.73,41.73,0,0,1,2,76.19V54.84H126Z"/><path class="cls-1" d="M64,61A25.39,25.39,0,1,0,89.39,86.35,25.42,25.42,0,0,0,64,61Zm0,48.77A23.39,23.39,0,1,1,87.39,86.35,23.41,23.41,0,0,1,64,109.74Z"/><path class="cls-1" d="M78.23,81.29H69.06V72.13a1,1,0,0,0-1-1H59.94a1,1,0,0,0-1,1v9.16H49.77a1,1,0,0,0-1,1v8.13a1,1,0,0,0,1,1h9.17v9.16a1,1,0,0,0,1,1h8.12a1,1,0,0,0,1-1V91.42h9.17a1,1,0,0,0,1-1V82.29A1,1,0,0,0,78.23,81.29Zm-1,8.13H68.06a1,1,0,0,0-1,1v9.16H60.94V90.42a1,1,0,0,0-1-1H50.77V83.29h9.17a1,1,0,0,0,1-1V73.13h6.12v9.16a1,1,0,0,0,1,1h9.17Z"/></g></svg>